# xmcd CD database file
#
# Track frame offsets:
#	150
#	28672
#	59945
#	79750
#	120577
#	147212
#	181660
#	203775
#	222585
#	245660
#
# Disc length: 3580 seconds
#
# Revision: 0
# Processed by: cddbd v1.4PL0 Copyright (c) Steve Scherf et al.
# Submitted via: CDex 1.40PlusFr
#
DISCID=960dfa0a
DTITLE=Karen Caroll - Had my fun
DYEAR=1995
DGENRE=Blues
TTITLE0=Vicksburg blues
TTITLE1=Bluebird
TTITLE2=Down home blues
TTITLE3=Love her with a feeling
TTITLE4=Help me
TTITLE5=Goin' down slow
TTITLE6=shakey ground
TTITLE7=Spoonful
TTITLE8=Confessin' the blues
TTITLE9=Since i fell for you
EXTD=YEAR: 1995 ID3G: 0
EXTT0=
EXTT1=
EXTT2=
EXTT3=
EXTT4=
EXTT5=
EXTT6=
EXTT7=
EXTT8=
EXTT9=
PLAYORDER=
